<?xml version="1.0" encoding="utf-8"?>
<!-- Generator: Adobe Illustrator 19.0.0, SVG Export Plug-In . SVG Version: 6.00 Build 0)  -->
<svg version="1.1" id="Layer_1" xmlns="http://www.w3.org/2000/svg" xmlns:xlink="http://www.w3.org/1999/xlink" x="0px" y="0px"
	 viewBox="0 0 100 37" style="enable-background:new 0 0 100 37;" xml:space="preserve">
<style type="text/css">
	.st0{fill:#111111;}
	.st1{fill:#40ACAF;}
	.st2{opacity:0.89;fill:#111111;}
</style>
<g id="XMLID_143_">
	<path id="XMLID_144_" class="st0" d="M4.3,34.2H3.9v-3.9h0.4V34.2z"/>
	<path id="XMLID_146_" class="st0" d="M10,34.2H9.6L7.1,31v3.2H6.6v-3.9H7l2.6,3.2v-3.2H10V34.2z"/>
	<path id="XMLID_148_" class="st0" d="M12.7,32.1h2v0.4h-2v1.7h-0.4v-3.9H15v0.4h-2.3V32.1z"/>
	<path id="XMLID_150_" class="st0" d="M20.8,32.2c0,1.1-0.9,2-2,2c-1.1,0-2-0.9-2-2s0.9-2,2-2C19.9,30.2,20.8,31.1,20.8,32.2z
		 M20.4,32.2c0-0.9-0.7-1.7-1.6-1.7c-0.9,0-1.6,0.7-1.6,1.7s0.7,1.7,1.6,1.7C19.7,33.9,20.4,33.1,20.4,32.2z"/>
	<path id="XMLID_153_" class="st0" d="M23.3,32.8v1.4h-0.4v-3.9h1.5c0.9,0,1.5,0.5,1.5,1.2c0,0.6-0.4,1.1-1.1,1.2l1.3,1.5h-0.5
		l-1.2-1.4H23.3z M24.4,32.4c0.6,0,1.1-0.3,1.1-0.9c0-0.5-0.5-0.9-1.1-0.9h-1v1.7H24.4z"/>
	<path id="XMLID_156_" class="st0" d="M31.8,34.2h-0.4l0-3L30,33.4h-0.3l-1.4-2.3l0,3H28v-3.9h0.3l1.6,2.6l1.6-2.6h0.3V34.2z"/>
	<path id="XMLID_158_" class="st0" d="M34.5,32h2.1v0.4h-2.1v1.4h2.3v0.4h-2.7v-3.9h2.7v0.4h-2.3V32z"/>
	<path id="XMLID_160_" class="st0" d="M40.4,30.3c1.2,0,2.1,0.8,2.1,1.9c0,1.2-0.9,2-2.1,2H39v-3.9H40.4z M40.4,33.8
		c1,0,1.7-0.7,1.7-1.6c0-0.9-0.7-1.6-1.7-1.6h-1v3.2H40.4z"/>
	<path id="XMLID_163_" class="st0" d="M50.5,33L50,34.2h-0.4l1.8-3.9h0.4l1.8,3.9h-0.4L52.6,33H50.5z M51.5,30.7l-0.9,1.9h1.7
		L51.5,30.7z"/>
	<path id="XMLID_166_" class="st0" d="M58.9,34.2h-0.4L57.4,31l-1.1,3.2h-0.4l-1.3-3.9H55l1.1,3.3l1.1-3.3h0.4l1.1,3.3l1.1-3.3h0.4
		L58.9,34.2L58.9,34.2z"/>
	<path id="XMLID_168_" class="st0" d="M62,33l-0.5,1.1H61l1.8-3.9h0.4l1.8,3.9h-0.4L64,33H62z M63,30.7l-0.9,1.9h1.7L63,30.7z"/>
	<path id="XMLID_171_" class="st0" d="M67.3,32.8v1.4h-0.4v-3.9h1.5c0.9,0,1.5,0.5,1.5,1.2c0,0.6-0.4,1.1-1.1,1.2l1.3,1.5h-0.5
		l-1.2-1.4H67.3z M68.4,32.4c0.6,0,1.1-0.3,1.1-0.9c0-0.5-0.5-0.9-1.1-0.9h-1v1.7H68.4z"/>
	<path id="XMLID_174_" class="st0" d="M72.2,32h2.1v0.4h-2.1v1.4h2.3v0.4h-2.7v-3.9h2.7v0.4h-2.3V32z"/>
	<path id="XMLID_176_" class="st0" d="M79.8,34.2h-0.4L76.9,31v3.2h-0.4v-3.9h0.3l2.6,3.2v-3.2h0.4V34.2z"/>
	<path id="XMLID_178_" class="st0" d="M82.3,32h2.1v0.4h-2.1v1.4h2.3v0.4h-2.7v-3.9h2.7v0.4h-2.3V32z"/>
	<path id="XMLID_180_" class="st0" d="M89.4,31.3H89c-0.1-0.5-0.4-0.8-1.1-0.8c-0.6,0-1,0.3-1,0.7c0,0.4,0.3,0.6,0.8,0.7l0.6,0.1
		c0.7,0.1,1.1,0.5,1.1,1c0,0.7-0.6,1.2-1.5,1.2c-0.9,0-1.5-0.5-1.6-1.3h0.4c0.1,0.6,0.5,1,1.3,1c0.6,0,1-0.3,1-0.8
		c0-0.3-0.2-0.6-0.7-0.7l-0.7-0.1c-0.7-0.1-1.1-0.5-1.1-1c0-0.7,0.6-1.1,1.4-1.1C88.6,30.2,89.3,30.6,89.4,31.3z"/>
	<path id="XMLID_182_" class="st0" d="M94.1,31.3h-0.4c-0.1-0.5-0.4-0.8-1.1-0.8c-0.6,0-1,0.3-1,0.7c0,0.4,0.3,0.6,0.8,0.7l0.6,0.1
		c0.7,0.1,1.1,0.5,1.1,1c0,0.7-0.6,1.2-1.5,1.2c-0.9,0-1.5-0.5-1.6-1.3h0.4c0.1,0.6,0.5,1,1.3,1c0.6,0,1-0.3,1-0.8
		c0-0.3-0.2-0.6-0.7-0.7l-0.7-0.1c-0.7-0.1-1.1-0.5-1.1-1c0-0.7,0.6-1.1,1.4-1.1C93.4,30.2,94,30.6,94.1,31.3z"/>
</g>
<g id="XMLID_23_">
	<path id="XMLID_63_" class="st0" d="M68.3,12.8c-1.3-1.2-3-1.9-4.7-1.9c-4.2,0-6.4,3.1-6.4,6.5c0,3.4,2.2,6.4,6.4,6.4
		c1.6,0,3.2-0.5,4.4-1.7V18H63v-1h6.1v5.4c-1.5,1.5-3.3,2.3-5.5,2.3c-4.9,0-7.5-3.4-7.5-7.4c0-4.5,3.1-7.5,7.5-7.5
		c1.9,0,3.8,0.7,5.3,2.2L68.3,12.8z"/>
	<path id="XMLID_106_" class="st0" d="M83.5,24.6h-1.5l-5-5.5h-4v5.5H72V10.1c2.1,0,4.2,0,6.4,0c3.1,0,4.7,2.3,4.8,4.5
		c0,2.4-1.5,4.4-4.7,4.4L83.5,24.6z M73.1,18.1h5.1c2.5,0,3.6-1.4,3.7-3.5c0-1.7-1.1-3.5-3.5-3.5h-5.3V18.1z"/>
	<path id="XMLID_186_" class="st0" d="M97.4,22.6c-1.4,1.4-3.4,2.2-5.3,2.2c-4.9,0-7.4-3.4-7.5-7.3c0-3.9,2.5-7.5,7.5-7.5
		c1.9,0,3.8,0.7,5.3,2.2l-0.8,0.7c-1.2-1.2-2.9-1.8-4.5-1.8c-4.2,0-6.4,3-6.4,6.5c0,3.4,2.2,6.3,6.4,6.3c1.6,0,3.3-0.6,4.5-1.8
		L97.4,22.6z"/>
</g>
<path id="XMLID_19_" class="st1" d="M26.2,27c-2.6,0-4.8-0.9-6.7-2.7c-1.9-1.8-2.8-4-2.8-6.5c0-2.6,0.9-4.8,2.7-6.7
	c1.9-1.9,4.1-2.8,6.7-2.8c2.6,0,4.8,0.9,6.7,2.7c1.9,1.8,2.8,3.9,2.8,6.5c0,2.6-0.9,4.9-2.8,6.7C31,26.1,28.8,27,26.2,27z
	 M33.9,17.6c0-2.1-0.8-3.9-2.3-5.3s-3.3-2.2-5.4-2.2c-2.1,0-3.9,0.8-5.4,2.2s-2.3,3.3-2.3,5.4c0,2.1,0.8,3.9,2.3,5.3
	c1.5,1.5,3.3,2.2,5.4,2.3c2.1,0,4-0.7,5.5-2.2C33.2,21.5,34,19.7,33.9,17.6z"/>
<rect id="XMLID_18_" x="51.4" y="5.8" class="st2" width="0.2" height="23.1"/>
<path id="XMLID_16_" class="st1" d="M42,19.6c1.4-0.1,2.5-0.7,3.4-1.7c0.9-1,1.4-2.3,1.4-3.7c0-1.7-0.5-3.1-1.7-4.2
	c-1.2-1.1-2.8-1.7-4.8-1.7H38h-0.7h-5.7c0.8,0.5,1.6,1,2.4,1.7l6.5,0c1.4,0,2.5,0.4,3.3,1.2c0.8,0.7,1.2,1.6,1.2,2.7
	c0.1,1.2-0.4,2.3-1.3,3.1c-0.9,0.8-2.2,1.2-3.8,1.2h-1.8l6.1,8.2h2.2l-5-6.7L42,19.6z"/>
<path id="XMLID_15_" class="st1" d="M18.6,1.6c-3.1,7.6-6.1,15.2-9.2,22.9L3.1,8.3H0.9l7.6,18.4h1.8c3.4-8.4,6.9-16.7,10.3-25.1
	H18.6z"/>
<g id="XMLID_6_">
	<path id="XMLID_14_" class="st0" d="M27.6,15.7c0.2,0.1,0.3,0.2,0.4,0.3l1-1.3c0.1,0,0.2,0.1,0.4,0.1c0.6,0,1.1-0.5,1.1-1.1
		c0-0.6-0.5-1.1-1.1-1.1c-0.6,0-1.1,0.5-1.1,1.1c0,0.3,0.1,0.5,0.2,0.7L27.6,15.7z"/>
	<path id="XMLID_10_" class="st0" d="M24.5,17.7l-2.8,0.6c-0.2-0.4-0.5-0.6-1-0.6c-0.6,0-1.1,0.5-1.1,1.1c0,0.6,0.5,1.1,1.1,1.1
		c0.6,0,1-0.4,1.1-1l2.8-0.6C24.6,18,24.5,17.8,24.5,17.7z"/>
	<path id="XMLID_9_" class="st0" d="M30.6,18.7c-0.3,0-0.6,0.1-0.9,0.4l-1.3-0.8c-0.1,0.2-0.2,0.3-0.3,0.5l1.2,0.8
		c0,0.1-0.1,0.3-0.1,0.4c0,0.7,0.5,1.2,1.2,1.2c0.7,0,1.2-0.5,1.2-1.2S31.3,18.7,30.6,18.7z"/>
</g>
<circle id="XMLID_5_" class="st0" cx="26.6" cy="17.5" r="1.7"/>
</svg>
